<svg width="512" height="512" viewBox="0 0 512 512" fill="none" xmlns="http://www.w3.org/2000/svg">
  <rect width="512" height="512" fill="#FAF7F4"/>
  <path d="M235 70C250 55 267 45 285 38V95C272 102 262 113 254 127C247 143 244 159 245 176C230 161 222 142 222 121C222 100 226 83 235 70Z" fill="#7B3F2E"/>
  <path d="M287 98C301 106 312 118 319 133C326 149 328 166 324 183C319 201 309 216 293 227C278 239 261 245 243 245C256 233 266 217 273 199C281 182 286 164 287 145V98Z" fill="#8D5A4B"/>
  <path d="M168 195H344C344 232 335 260 317 279C300 298 279 307 256 307C233 307 212 298 195 279C177 260 168 232 168 195Z" fill="#2E5C3A"/>
  <path d="M93 256L177 285L141 362L58 332L93 256Z" fill="#A54F4A"/>
  <path d="M104 273L161 293L136 347L78 326L104 273Z" fill="#FAF7F4"/>
  <path d="M119 287L152 299L135 338L102 326L119 287Z" fill="#111111"/>
  <path d="M419 255L454 332L371 363L336 286L419 255Z" fill="#A54F4A"/>
  <path d="M407 273L432 327L375 349L350 294L407 273Z" fill="#FAF7F4"/>
  <path d="M391 287L408 326L375 338L358 300L391 287Z" fill="#111111"/>
  <path d="M256 240L329 369H183L256 240Z" fill="#8D5A4B"/>
  <path d="M256 264L306 354H206L256 264Z" fill="#FAF7F4"/>
  <path d="M256 293L287 347H225L256 293Z" fill="#2E5C3A"/>
  <text x="256" y="438" text-anchor="middle" font-family="system-ui, -apple-system, sans-serif" font-size="46" font-weight="700" letter-spacing="8" fill="#111111">UTA cafe</text>
</svg>
